<svg width="0" height="0"><symbol xmlns="http://www.w3.org/2000/svg" id="add-round-duotone" fill="none" viewBox="0 0 24 24"><circle cx="12" cy="12" r="9" fill="var(--icon-color)" fill-opacity=".25"/><path stroke="var(--icon-color)" stroke-linecap="round" stroke-width="1.2" d="M12 8v8m4-4H8"/></symbol><symbol xmlns="http://www.w3.org/2000/svg" id="close-ring-duotone-1" fill="none" viewBox="0 0 20 20"><circle cx="10" cy="10" r="7.5" fill="var(--icon-color)" fill-opacity=".25"/><path stroke="var(--icon-color)" stroke-linecap="round" stroke-width="1.2" d="m7.5 7.5 5 5m0-5-5 5"/></symbol><symbol xmlns="http://www.w3.org/2000/svg" id="close-ring-duotone" fill="none" viewBox="0 0 20 20"><circle cx="10" cy="10" r="7.5" fill="var(--icon-color)" fill-opacity=".25"/><path stroke="var(--icon-color)" stroke-linecap="round" stroke-width="1.2" d="m7.5 7.5 5 5m0-5-5 5"/></symbol><symbol xmlns="http://www.w3.org/2000/svg" id="done-round-duotone" fill="none" viewBox="0 0 20 20"><circle cx="10" cy="10" r="6.667" fill="var(--icon-color)" fill-opacity=".25"/><path stroke="var(--icon-color)" stroke-linecap="round" stroke-width="1.2" d="m7.083 9.167 1.793 1.793a1 1 0 0 0 1.414 0L16.25 5"/></symbol><symbol xmlns="http://www.w3.org/2000/svg" id="done-round" fill="none" viewBox="0 0 20 20"><path stroke="var(--icon-color)" stroke-linecap="round" stroke-width="2" d="m4.167 11.667 2.566 1.925a1 1 0 0 0 1.374-.167L15 5"/></symbol><symbol xmlns="http://www.w3.org/2000/svg" id="edit-duotone" fill="none" viewBox="0 0 24 24"><path fill="var(--icon-color)" fill-opacity=".25" d="m13.5 5.5-7.047 7.047c-.225.225-.337.337-.408.476-.072.139-.098.296-.15.61l-.78 4.677c-.052.314-.079.472.012.563.091.09.249.064.563.012l4.678-.78c.313-.052.47-.078.61-.15.138-.071.25-.183.475-.408L18.5 10.5c1.017-1.017 1.526-1.526 1.638-2.137.045-.24.045-.486 0-.726-.112-.611-.62-1.12-1.638-2.137-1.017-1.017-1.526-1.526-2.137-1.638a2 2 0 0 0-.726 0c-.611.112-1.12.62-2.137 1.638Z"/><path fill="var(--icon-color)" d="m12.293 6.707-5.84 5.84c-.225.225-.337.337-.408.476-.072.139-.098.296-.15.61l-.78 4.677c-.052.314-.079.472.012.563.091.09.249.064.563.012l4.678-.78c.313-.052.47-.078.61-.15.138-.071.25-.183.475-.408l5.84-5.84c.333-.333.5-.5.5-.707 0-.207-.167-.374-.5-.707l-3.586-3.586c-.333-.333-.5-.5-.707-.5-.207 0-.374.167-.707.5Z"/></symbol><symbol xmlns="http://www.w3.org/2000/svg" id="logo" fill="none" viewBox="0 0 40 40"><path fill="var(--icon-color)" fill-opacity=".2" d="M16.326 15.72c2.029-1.172 5.319-1.172 7.348 0l12.652 7.303c2.029 1.171 2.029 3.07 0 4.242L23.674 34.57c-2.029 1.171-5.32 1.171-7.348 0L3.674 27.265c-2.029-1.171-2.029-3.07 0-4.242l12.652-7.304Z"/><path fill="var(--icon-color)" fill-opacity=".5" d="M16.326 10.51c2.029-1.172 5.32-1.172 7.348 0l12.652 7.303c2.029 1.172 2.029 3.071 0 4.243l-12.652 7.303c-2.029 1.172-5.319 1.172-7.348 0L3.674 22.056c-2.029-1.172-2.029-3.071 0-4.243l12.652-7.303Z"/><path fill="var(--icon-color)" d="M16.326 5.121c2.029-1.171 5.32-1.171 7.348 0l12.652 7.304c2.029 1.171 2.029 3.07 0 4.242l-12.652 7.304c-2.029 1.171-5.319 1.171-7.348 0L3.674 16.667c-2.029-1.171-2.029-3.07 0-4.242L16.326 5.12Z"/></symbol><symbol xmlns="http://www.w3.org/2000/svg" id="time-atack-duotone" fill="none" viewBox="0 0 20 20"><circle cx="10" cy="10" r="7.5" fill="var(--icon-color)" fill-opacity=".25"/><path fill="var(--icon-color)" d="M10 4.467c0-.143 0-.215.047-.259.046-.044.115-.04.253-.034a5.834 5.834 0 1 1-5.195 8.998c-.075-.115-.113-.173-.098-.236.015-.062.077-.098.201-.17l4.642-2.68c.073-.042.11-.063.13-.098.02-.034.02-.077.02-.161v-5.36Z"/></symbol><symbol xmlns="http://www.w3.org/2000/svg" id="trash" fill="none" viewBox="0 0 20 20"><path stroke="var(--icon-color)" stroke-linecap="round" stroke-width="2" d="M8.333 12.5V10m3.334 2.5V10M2.5 5.833h15v0c-.465 0-.697 0-.89.039a2 2 0 0 0-1.572 1.571C15 7.636 15 7.87 15 8.333v4.334c0 1.885 0 2.828-.586 3.414-.586.586-1.528.586-3.414.586H9c-1.886 0-2.828 0-3.414-.586C5 15.495 5 14.552 5 12.667V8.333c0-.464 0-.697-.038-.89A2 2 0 0 0 3.39 5.872c-.193-.039-.425-.039-.89-.039v0Zm5.89-3.024c.095-.089.304-.167.595-.223A5.567 5.567 0 0 1 10 2.5c.367 0 .723.03 1.015.086.29.056.5.134.595.223"/></symbol></svg>